<svg width="685" height="570" viewBox="0 0 685 570" fill="none" xmlns="http://www.w3.org/2000/svg">
<path d="M626.967 133.332H623.879V48.8809C623.879 42.462 622.614 36.106 620.155 30.1756C617.696 24.2452 614.091 18.8567 609.547 14.3176C605.003 9.77861 599.608 6.17799 593.671 3.72136C587.734 1.26474 581.37 0.000218928 574.943 0H395.806C382.827 0 370.379 5.14967 361.202 14.3162C352.024 23.4826 346.868 35.9151 346.868 48.8784V512.189C346.868 525.152 352.024 537.584 361.202 546.751C370.379 555.917 382.827 561.067 395.806 561.067H574.943C587.922 561.067 600.37 555.917 609.547 546.751C618.725 537.584 623.881 525.152 623.881 512.189V193.446H626.969L626.967 133.332Z" fill="#3F3D56"/>
<path d="M613.464 49.2218V511.848C613.464 521.53 609.613 530.814 602.76 537.66C595.906 544.505 586.61 548.351 576.917 548.352H396.921C387.228 548.351 377.932 544.505 371.078 537.66C364.224 530.814 360.374 521.53 360.374 511.848V49.2218C360.374 39.5413 364.225 30.2574 371.079 23.4124C377.932 16.5673 387.227 12.7216 396.92 12.7212H418.756C417.683 15.3547 417.275 18.2112 417.567 21.0395C417.858 23.8677 418.841 26.5811 420.429 28.9408C422.017 31.3005 424.162 33.2342 426.674 34.5719C429.185 35.9097 431.988 36.6103 434.835 36.6123H537.46C540.307 36.6102 543.109 35.9094 545.621 34.5716C548.133 33.2339 550.277 31.3001 551.865 28.9404C553.453 26.5807 554.436 23.8675 554.727 21.0393C555.019 18.2111 554.61 15.3546 553.537 12.7212H576.917C586.61 12.7214 595.906 16.5673 602.76 23.413C609.613 30.2586 613.464 39.5432 613.464 49.2243V49.2218Z" fill="white"/>
<path d="M457.367 121.358C457.367 121.358 455.767 115.606 453.361 114.163V121.358C453.361 121.358 443.757 119.919 436.954 127.11L443.357 128.548C443.357 128.548 433.952 131.666 431.951 145.096L435.957 143.178L446.762 166.201L453.566 153.731L467.17 167.64L463.968 159.966L469.171 162.364L465.569 156.129L481.577 163.324L480.376 159.489L486.241 169.305C486.241 169.305 506.389 148.458 484.378 126.394C484.38 126.394 474.375 115.842 457.367 121.358Z" fill="#2F2E41"/>
<path d="M455.52 172.58C455.52 172.58 461.485 195.224 459.693 198.203C457.9 201.182 476.993 217.271 476.993 217.271L495.488 213.696L496.681 188.073C496.681 188.073 479.976 173.773 483.556 163.047L455.52 172.58Z" fill="#FFB9B9"/>
<path opacity="0.1" d="M455.52 172.58C455.52 172.58 461.485 195.224 459.693 198.203C457.9 201.182 476.993 217.271 476.993 217.271L495.488 213.696L496.681 188.073C496.681 188.073 479.976 173.773 483.556 163.047L455.52 172.58Z" fill="black"/>
<path d="M440.008 315.593C440.008 315.593 435.235 345.387 438.815 369.817C442.394 394.248 444.184 412.124 442.394 415.699C440.604 419.274 438.815 418.678 440.008 422.849C441.202 427.02 443.588 425.232 441.202 429.404C438.816 433.575 439.412 440.725 439.412 442.512C439.412 444.3 436.429 483.032 439.412 487.203C442.395 491.374 443.585 490.778 443.585 490.778L447.165 512.229L466.256 509.25L463.273 489.586C463.273 489.586 470.432 486.011 467.446 483.628C464.46 481.245 462.673 481.245 464.463 481.245C466.253 481.245 469.236 480.649 466.849 479.457C464.462 478.265 466.252 446.088 466.252 446.088C466.252 446.088 470.425 387.096 487.133 388.884C503.84 390.672 516.965 425.233 516.965 425.233L521.738 440.726C521.738 440.726 523.528 469.924 524.721 472.307C525.915 474.69 525.318 475.286 524.721 476.475C524.124 477.664 519.948 474.687 524.124 479.454C528.301 484.221 528.297 486.008 528.297 486.008L530.982 517.292L550.377 505.083V486.611C550.377 486.611 553.956 480.653 552.763 475.885C551.569 471.118 551.569 448.475 552.763 444.305C553.956 440.134 553.36 438.941 552.166 437.154C550.973 435.367 547.993 436.558 550.376 432.387C552.759 428.216 554.549 417.49 550.973 409.744C547.397 401.997 527.706 325.726 519.354 321.551C511.002 317.377 440.008 315.593 440.008 315.593Z" fill="#2F2E41"/>
<path d="M466.258 499.121C466.258 499.121 452.537 496.738 451.94 500.313C451.612 503.283 451.612 506.28 451.94 509.25C451.94 509.25 447.167 509.846 447.767 514.018C448.367 518.189 448.961 529.51 448.961 529.51C448.961 529.51 441.504 547.089 445.679 551.26C445.721 551.302 453.917 550.963 458.628 550.963H475.807C475.807 550.963 478.193 542.62 475.807 541.429C473.42 540.238 468.051 529.509 468.648 527.128C469.244 524.747 468.648 507.464 468.648 507.464L466.013 507.612L466.258 499.121Z" fill="#3F3D56"/>
<path d="M536.059 509.846L528.9 515.21C528.9 515.21 531.883 525.339 530.093 527.13C528.304 528.92 524.426 549.475 528.007 550.667C531.588 551.858 553.66 550.071 553.66 550.071C553.66 550.071 578.419 550.964 579.015 549.773C579.61 548.582 580.805 541.431 573.646 539.047C566.487 536.664 562.31 537.26 559.924 530.109C557.538 522.958 552.169 512.233 552.169 512.233L550.975 499.124C550.975 499.124 543.816 500.316 542.623 500.316C541.429 500.316 535.464 503.295 536.061 505.679C536.423 507.045 536.423 508.481 536.059 509.846Z" fill="#3F3D56"/>
<path d="M465.661 180.032C479.335 180.032 490.42 168.96 490.42 155.303C490.42 141.645 479.335 130.574 465.661 130.574C451.988 130.574 440.903 141.645 440.903 155.303C440.903 168.96 451.988 180.032 465.661 180.032Z" fill="#FFB9B9"/>
<path d="M481.77 197.61L490.719 181.987C490.719 181.987 511.599 180.925 512.792 183.309C513.986 185.693 524.128 303.678 524.128 303.678C524.128 303.678 528.901 310.232 525.917 314.403L522.934 318.571V326.914C522.934 326.914 508.019 338.834 487.736 336.447C467.452 334.061 441.799 323.338 441.799 323.338L447.169 289.97L446.572 191.651L458.59 185.799C458.59 185.799 472.223 195.226 474.609 198.205C476.995 201.184 481.77 197.61 481.77 197.61Z" fill="#FF7B32"/>
<path d="M460.888 197.61L458.204 181.82L421.513 207.744L441.793 267.331C441.793 267.331 429.265 289.975 431.651 298.317C434.038 306.659 435.231 319.172 435.231 319.172C435.231 319.172 467.446 327.515 466.85 323.34C466.254 319.166 466.85 300.697 466.85 300.697C466.85 300.697 477.282 223.529 472.065 211.762C466.848 199.994 460.888 197.61 460.888 197.61Z" fill="#E6E6E6"/>
<path d="M493.701 189.864L488.033 178.84C488.033 178.495 528.301 184.058 530.096 187.48L525.32 279.245C525.32 279.245 525.917 292.354 528.9 295.929C531.883 299.504 531.286 305.463 530.093 306.059C528.901 306.655 509.213 312.613 509.213 312.613C509.213 312.613 490.122 279.84 491.912 240.509C493.702 201.177 493.701 189.864 493.701 189.864Z" fill="#E6E6E6"/>
<path d="M522.934 188.076L529.253 186.732C531.726 188.122 533.692 190.262 534.866 192.842C536.656 197.01 557.537 241.704 557.537 244.683C557.537 247.662 558.133 269.709 545.008 269.709C531.883 269.709 521.741 213.697 521.741 213.697L522.934 188.076Z" fill="#E6E6E6"/>
<path d="M433.446 342.407L444.184 358.495L450.15 338.239L445.977 332.28L433.446 342.407Z" fill="#FFB9B9"/>
<path d="M426.883 208.335L421.514 207.74L408.388 278.052L431.059 348.365L450.747 333.468L437.025 286.394L441.797 250.046L426.883 208.335Z" fill="#E6E6E6"/>
<path d="M491.509 148.326C488.231 136.391 477.979 127.68 465.832 127.68C461.596 127.723 457.434 128.794 453.704 130.8C449.975 132.806 446.789 135.687 444.421 139.195L450.546 150.92L456.655 140.862L468.87 152.08L465.996 145.891L470.67 147.825L467.436 142.796L481.807 148.598L480.729 145.503L487.556 154.401C489.143 152.564 490.472 150.52 491.509 148.326Z" fill="#2F2E41"/>
<path opacity="0.1" d="M519.056 216.976L535.131 230.974L526.812 212.802L519.056 216.976Z" fill="black"/>
<path d="M512.195 214.89C512.195 214.89 504.439 191.055 494.894 195.226C485.349 199.397 498.474 224.424 498.474 224.424L506.826 229.787L512.195 214.89Z" fill="#FFB9B9"/>
<path d="M553.36 245.28L511.598 212.507L496.683 234.555C496.683 234.555 536.058 276.267 545.005 267.924C553.953 259.582 553.36 245.28 553.36 245.28Z" fill="#E6E6E6"/>
<path d="M55.5014 13.3372H31.1652V19.1889H55.5014V13.3372Z" fill="#FF7B32"/>
<path d="M139.777 13.3372H131.214V19.1889H139.777V13.3372Z" fill="#FF7B32"/>
<path d="M156.903 13.3372H148.34V19.1889H156.903V13.3372Z" fill="#FF7B32"/>
<path d="M122.201 13.3372H64.0642V19.1889H122.201V13.3372Z" fill="#FF7B32"/>
<path d="M24.8558 51.1482H0.51947V56.9999H24.8558V51.1482Z" fill="#FF7B32"/>
<path d="M109.131 51.1482H100.569V56.9999H109.131V51.1482Z" fill="#FF7B32"/>
<path d="M126.257 51.1482H117.694V56.9999H126.257V51.1482Z" fill="#FF7B32"/>
<path d="M91.5552 51.1482H33.4185V56.9999H91.5552V51.1482Z" fill="#FF7B32"/>
<path d="M125.356 26.391H101.019V32.2427H125.356V26.391Z" fill="#FF7B32"/>
<path d="M158.255 26.391H133.918V32.2427H158.255V26.391Z" fill="#FF7B32"/>
<path d="M9.08224 26.391H0.51947V32.2427H9.08224V26.391Z" fill="#FF7B32"/>
<path d="M26.2078 26.391H17.6451V32.2427H26.2078V26.391Z" fill="#FF7B32"/>
<path d="M92.9072 26.391H34.7705V32.2427H92.9072V26.391Z" fill="#FF7B32"/>
<path d="M50.5441 44.8463H74.8804V38.9946H50.5441V44.8463Z" fill="#FF7B32"/>
<path d="M17.645 44.8463H41.9813V38.9946H17.645V44.8463Z" fill="#FF7B32"/>
<path d="M0.519508 44.8463H9.08228V38.9946H0.519508V44.8463Z" fill="#FF7B32"/>
<path d="M149.692 44.8463H158.255V38.9946H149.692V44.8463Z" fill="#FF7B32"/>
<path d="M82.9925 44.8463L141.129 44.8463V38.9946L82.9925 38.9946V44.8463Z" fill="#FF7B32"/>
<path d="M684.519 559.613H71.4586V560.969H684.519V559.613Z" fill="#2F2E41"/>
<path d="M133.235 570L132.309 569.654C132.105 569.577 111.843 561.823 102.349 544.241C92.856 526.659 97.5047 505.488 97.553 505.278L97.7717 504.314L98.6981 504.66C98.9021 504.737 119.164 512.491 128.658 530.073C138.151 547.655 133.502 568.826 133.454 569.036L133.235 570ZM103.867 543.423C111.892 558.287 127.905 565.909 131.961 567.648C132.733 563.306 135.151 545.742 127.132 530.892C119.113 516.041 103.096 508.41 99.0381 506.666C98.2704 511.011 95.8529 528.572 103.87 543.422L103.867 543.423Z" fill="#3F3D56"/>
<path d="M109.605 538.073C126.663 548.324 133.232 568.686 133.232 568.686C133.232 568.686 112.142 572.427 95.0872 562.177C78.032 551.927 71.4596 531.564 71.4596 531.564C71.4596 531.564 92.5466 527.823 109.605 538.073Z" fill="#FF7B32"/>
<path d="M392.683 542.414L411.044 516.617L392.643 545.24L392.603 548.196C391.312 548.172 390.035 548.116 388.771 548.029C388.771 547.358 390.68 510.446 390.622 509.778C390.711 509.754 390.796 506.287 390.833 506.135L372.205 477.557L390.88 503.449L390.929 504.209L392.34 475.534L376.377 445.992L392.519 470.494C392.529 470.104 393.888 411.205 393.9 410.842C393.9 411.035 393.788 457.723 393.788 457.919L409.524 439.284L393.732 461.957L393.399 487.631L408.08 462.948C389.711 498.979 393.823 486.348 393.168 505.687L414.473 471.323L393.1 510.667L392.683 542.414Z" fill="#D0CDE1"/>
<path d="M584.404 544.216L597.043 526.461L584.379 546.161L584.352 548.195C583.462 548.179 582.582 548.141 581.715 548.082C581.715 547.62 583.029 522.216 582.989 521.756C583.051 521.739 583.109 519.353 583.134 519.249L570.314 499.577L583.167 517.396L583.2 517.919L584.171 498.182L573.184 477.85L584.293 494.714C584.3 494.445 585.236 453.908 585.244 453.658C585.244 453.791 585.166 485.924 585.167 486.059L595.997 473.233L585.129 488.838L584.897 506.509L594.995 489.52C582.353 514.318 585.183 505.623 584.73 518.934L599.393 495.283L584.692 522.366L584.404 544.216Z" fill="#D0CDE1"/>
<path d="M385.497 58.8557C386.501 58.8557 387.314 58.0428 387.314 57.0401C387.314 56.0374 386.501 55.2246 385.497 55.2246C384.493 55.2246 383.679 56.0374 383.679 57.0401C383.679 58.0428 384.493 58.8557 385.497 58.8557Z" fill="#3F3D56"/>
<path d="M392.162 58.8557C393.166 58.8557 393.979 58.0428 393.979 57.0401C393.979 56.0374 393.166 55.2246 392.162 55.2246C391.158 55.2246 390.344 56.0374 390.344 57.0401C390.344 58.0428 391.158 58.8557 392.162 58.8557Z" fill="#3F3D56"/>
<path d="M398.827 58.8557C399.831 58.8557 400.645 58.0428 400.645 57.0401C400.645 56.0374 399.831 55.2246 398.827 55.2246C397.824 55.2246 397.01 56.0374 397.01 57.0401C397.01 58.0428 397.824 58.8557 398.827 58.8557Z" fill="#3F3D56"/>
<path d="M589.1 52.1986H570.316V54.6193H589.1V52.1986Z" fill="#3F3D56"/>
<path d="M589.1 55.8296H570.316V58.2503H589.1V55.8296Z" fill="#3F3D56"/>
<path d="M589.1 59.4614H570.316V61.8821H589.1V59.4614Z" fill="#3F3D56"/>
</svg>
